STARTFONT 2.2
FONT "TractorFeedSerif-SmCnBold"
SIZE 12 120 72
FONTBOUNDINGBOX 10 9 0 -2
DWIDTH 10 0
SWIDTH 502 0
STARTPROPERTIES 15
FONT_ASCENT 8
FONT_DESCENT 4
SPACING "M"
FOUNDRY "dse"
FAMILY_NAME "Tractor Feed Serif"
WEIGHT_NAME "Bold"
FULL_NAME "Tractor Feed Serif Semicondensed Bold"
SLANT "R"
SETWIDTH_NAME "Semicondensed"
RESOLUTION_X 120
RESOLUTION_Y 72
PIXEL_SIZE 12
POINT_SIZE 120
CHARSET_REGISTRY ISO10646
CHARSET_ENCODING 1
ENDPROPERTIES
CHARS 95
STARTCHAR space
ENCODING 32
BBX 10 8 0 -1
DWIDTH 10 0
SWIDTH 502 0
BITMAP
0000
0000
0000
0000
0000
0000
0000
0000
ENDCHAR
STARTCHAR exclam
ENCODING 33
BBX 10 8 0 -1
DWIDTH 10 0
SWIDTH 502 0
BITMAP
0C00
0C00
0C00
0C00
0C00
0000
0C00
0000
ENDCHAR
STARTCHAR quotedbl
ENCODING 34
BBX 10 8 0 -1
DWIDTH 10 0
SWIDTH 502 0
BITMAP
1E00
1E00
1E00
0000
0000
0000
0000
0000
ENDCHAR
STARTCHAR numbersign
ENCODING 35
BBX 10 8 0 -1
DWIDTH 10 0
SWIDTH 502 0
BITMAP
1E00
1E00
7F80
1E00
7F80
1E00
1E00
0000
ENDCHAR
STARTCHAR dollar
ENCODING 36
BBX 10 8 0 -1
DWIDTH 10 0
SWIDTH 502 0
BITMAP
0C00
3F00
6C00
3F00
0D80
3F00
0C00
0000
ENDCHAR
STARTCHAR percent
ENCODING 37
BBX 10 8 0 -1
DWIDTH 10 0
SWIDTH 502 0
BITMAP
7980
7B00
0600
0C00
1800
3780
6780
0000
ENDCHAR
STARTCHAR ampersand
ENCODING 38
BBX 10 8 0 -1
DWIDTH 10 0
SWIDTH 502 0
BITMAP
1E00
3300
1E00
0C00
1F80
3300
1F80
0000
ENDCHAR
STARTCHAR quotesingle
ENCODING 39
BBX 10 8 0 -1
DWIDTH 10 0
SWIDTH 502 0
BITMAP
0600
0C00
1800
0000
0000
0000
0000
0000
ENDCHAR
STARTCHAR parenleft
ENCODING 40
BBX 10 8 0 -1
DWIDTH 10 0
SWIDTH 502 0
BITMAP
0600
0C00
1800
1800
1800
0C00
0600
0000
ENDCHAR
STARTCHAR parenright
ENCODING 41
BBX 10 8 0 -1
DWIDTH 10 0
SWIDTH 502 0
BITMAP
1800
0C00
0600
0600
0600
0C00
1800
0000
ENDCHAR
STARTCHAR asterisk
ENCODING 42
BBX 10 8 0 -1
DWIDTH 10 0
SWIDTH 502 0
BITMAP
0C00
0C00
0C00
7F80
1E00
3300
6180
0000
ENDCHAR
STARTCHAR plus
ENCODING 43
BBX 10 8 0 -1
DWIDTH 10 0
SWIDTH 502 0
BITMAP
0000
0C00
0C00
7F80
0C00
0C00
0000
0000
ENDCHAR
STARTCHAR comma
ENCODING 44
BBX 10 7 0 -2
DWIDTH 10 0
SWIDTH 502 0
BITMAP
0000
0000
0000
1E00
1E00
0C00
1800
ENDCHAR
STARTCHAR hyphen
ENCODING 45
BBX 10 8 0 -1
DWIDTH 10 0
SWIDTH 502 0
BITMAP
0000
0000
0000
7F80
0000
0000
0000
0000
ENDCHAR
STARTCHAR period
ENCODING 46
BBX 10 8 0 -1
DWIDTH 10 0
SWIDTH 502 0
BITMAP
0000
0000
0000
0000
0000
1E00
1E00
0000
ENDCHAR
STARTCHAR slash
ENCODING 47
BBX 10 8 0 -1
DWIDTH 10 0
SWIDTH 502 0
BITMAP
0180
0300
0600
0C00
1800
3000
6000
0000
ENDCHAR
STARTCHAR zero
ENCODING 48
BBX 10 8 0 -1
DWIDTH 10 0
SWIDTH 502 0
BITMAP
1E00
3300
6180
6180
6180
3300
1E00
0000
ENDCHAR
STARTCHAR one
ENCODING 49
BBX 10 8 0 -1
DWIDTH 10 0
SWIDTH 502 0
BITMAP
3C00
0C00
0C00
0C00
0C00
0C00
3F00
0000
ENDCHAR
STARTCHAR two
ENCODING 50
BBX 10 8 0 -1
DWIDTH 10 0
SWIDTH 502 0
BITMAP
3F00
6180
0180
0300
0C00
3180
7F80
0000
ENDCHAR
STARTCHAR three
ENCODING 51
BBX 10 8 0 -1
DWIDTH 10 0
SWIDTH 502 0
BITMAP
3F00
6180
0180
0F00
0180
6180
3F00
0000
ENDCHAR
STARTCHAR four
ENCODING 52
BBX 10 8 0 -1
DWIDTH 10 0
SWIDTH 502 0
BITMAP
0600
0F00
1B00
3300
7F80
0300
0780
0000
ENDCHAR
STARTCHAR five
ENCODING 53
BBX 10 8 0 -1
DWIDTH 10 0
SWIDTH 502 0
BITMAP
7F80
6000
7E00
0180
0180
6180
3F00
0000
ENDCHAR
STARTCHAR six
ENCODING 54
BBX 10 8 0 -1
DWIDTH 10 0
SWIDTH 502 0
BITMAP
1E00
3000
6000
6F00
6180
6180
3F00
0000
ENDCHAR
STARTCHAR seven
ENCODING 55
BBX 10 8 0 -1
DWIDTH 10 0
SWIDTH 502 0
BITMAP
7F80
6180
0300
0600
0C00
1800
3000
0000
ENDCHAR
STARTCHAR eight
ENCODING 56
BBX 10 8 0 -1
DWIDTH 10 0
SWIDTH 502 0
BITMAP
3F00
6180
6180
3F00
6180
6180
3F00
0000
ENDCHAR
STARTCHAR nine
ENCODING 57
BBX 10 8 0 -1
DWIDTH 10 0
SWIDTH 502 0
BITMAP
3F00
6180
6180
3D80
0180
0300
1E00
0000
ENDCHAR
STARTCHAR colon
ENCODING 58
BBX 10 8 0 -1
DWIDTH 10 0
SWIDTH 502 0
BITMAP
0000
1E00
1E00
0000
0000
1E00
1E00
0000
ENDCHAR
STARTCHAR semicolon
ENCODING 59
BBX 10 9 0 -2
DWIDTH 10 0
SWIDTH 502 0
BITMAP
0000
1E00
1E00
0000
0000
1E00
1E00
0C00
1800
ENDCHAR
STARTCHAR less
ENCODING 60
BBX 10 8 0 -1
DWIDTH 10 0
SWIDTH 502 0
BITMAP
0180
0600
1800
6000
1800
0600
0180
0000
ENDCHAR
STARTCHAR equal
ENCODING 61
BBX 10 8 0 -1
DWIDTH 10 0
SWIDTH 502 0
BITMAP
0000
0000
7F80
0000
7F80
0000
0000
0000
ENDCHAR
STARTCHAR greater
ENCODING 62
BBX 10 8 0 -1
DWIDTH 10 0
SWIDTH 502 0
BITMAP
6000
1800
0600
0180
0600
1800
6000
0000
ENDCHAR
STARTCHAR question
ENCODING 63
BBX 10 8 0 -1
DWIDTH 10 0
SWIDTH 502 0
BITMAP
3F00
6180
0300
0C00
0C00
0000
0C00
0000
ENDCHAR
STARTCHAR at
ENCODING 64
BBX 10 8 0 -1
DWIDTH 10 0
SWIDTH 502 0
BITMAP
3F00
6180
6780
6D80
6F00
6000
3F00
0000
ENDCHAR
STARTCHAR A
ENCODING 65
BBX 10 8 0 -1
DWIDTH 10 0
SWIDTH 502 0
BITMAP
0C00
1E00
3300
6180
7F80
6180
6180
0000
ENDCHAR
STARTCHAR B
ENCODING 66
BBX 10 8 0 -1
DWIDTH 10 0
SWIDTH 502 0
BITMAP
7E00
3180
3180
3F00
3180
3180
7E00
0000
ENDCHAR
STARTCHAR C
ENCODING 67
BBX 10 8 0 -1
DWIDTH 10 0
SWIDTH 502 0
BITMAP
3F00
6180
6000
6000
6000
6180
3F00
0000
ENDCHAR
STARTCHAR D
ENCODING 68
BBX 10 8 0 -1
DWIDTH 10 0
SWIDTH 502 0
BITMAP
7E00
3180
3180
3180
3180
3180
7E00
0000
ENDCHAR
STARTCHAR E
ENCODING 69
BBX 10 8 0 -1
DWIDTH 10 0
SWIDTH 502 0
BITMAP
7F80
3180
3000
3F00
3000
3180
7F80
0000
ENDCHAR
STARTCHAR F
ENCODING 70
BBX 10 8 0 -1
DWIDTH 10 0
SWIDTH 502 0
BITMAP
7F80
3180
3000
3F00
3000
3000
7E00
0000
ENDCHAR
STARTCHAR G
ENCODING 71
BBX 10 8 0 -1
DWIDTH 10 0
SWIDTH 502 0
BITMAP
3F00
6180
6000
6780
6180
6180
1F80
0000
ENDCHAR
STARTCHAR H
ENCODING 72
BBX 10 8 0 -1
DWIDTH 10 0
SWIDTH 502 0
BITMAP
6180
6180
6180
7F80
6180
6180
6180
0000
ENDCHAR
STARTCHAR I
ENCODING 73
BBX 10 8 0 -1
DWIDTH 10 0
SWIDTH 502 0
BITMAP
3F00
0C00
0C00
0C00
0C00
0C00
3F00
0000
ENDCHAR
STARTCHAR J
ENCODING 74
BBX 10 8 0 -1
DWIDTH 10 0
SWIDTH 502 0
BITMAP
1F80
0300
0300
0300
0300
6300
3F00
0000
ENDCHAR
STARTCHAR K
ENCODING 75
BBX 10 8 0 -1
DWIDTH 10 0
SWIDTH 502 0
BITMAP
6180
6300
6600
7800
6600
6300
6180
0000
ENDCHAR
STARTCHAR L
ENCODING 76
BBX 10 8 0 -1
DWIDTH 10 0
SWIDTH 502 0
BITMAP
7800
3000
3000
3000
3000
3180
7F80
0000
ENDCHAR
STARTCHAR M
ENCODING 77
BBX 10 8 0 -1
DWIDTH 10 0
SWIDTH 502 0
BITMAP
6180
3300
7F80
6D80
6180
6180
6180
0000
ENDCHAR
STARTCHAR N
ENCODING 78
BBX 10 8 0 -1
DWIDTH 10 0
SWIDTH 502 0
BITMAP
6180
3180
7980
6D80
6780
6300
6180
0000
ENDCHAR
STARTCHAR O
ENCODING 79
BBX 10 8 0 -1
DWIDTH 10 0
SWIDTH 502 0
BITMAP
3F00
6180
6180
6180
6180
6180
3F00
0000
ENDCHAR
STARTCHAR P
ENCODING 80
BBX 10 8 0 -1
DWIDTH 10 0
SWIDTH 502 0
BITMAP
7E00
3180
3180
3F00
3000
3000
7800
0000
ENDCHAR
STARTCHAR Q
ENCODING 81
BBX 10 8 0 -1
DWIDTH 10 0
SWIDTH 502 0
BITMAP
3F00
6180
6180
6180
6780
6300
3D80
0000
ENDCHAR
STARTCHAR R
ENCODING 82
BBX 10 8 0 -1
DWIDTH 10 0
SWIDTH 502 0
BITMAP
7E00
3180
3180
3F00
3600
3300
7980
0000
ENDCHAR
STARTCHAR S
ENCODING 83
BBX 10 8 0 -1
DWIDTH 10 0
SWIDTH 502 0
BITMAP
3F00
6180
6000
3F00
0180
6180
3F00
0000
ENDCHAR
STARTCHAR T
ENCODING 84
BBX 10 8 0 -1
DWIDTH 10 0
SWIDTH 502 0
BITMAP
7F80
6D80
0C00
0C00
0C00
0C00
3F00
0000
ENDCHAR
STARTCHAR U
ENCODING 85
BBX 10 8 0 -1
DWIDTH 10 0
SWIDTH 502 0
BITMAP
6180
6180
6180
6180
6180
6180
3F00
0000
ENDCHAR
STARTCHAR V
ENCODING 86
BBX 10 8 0 -1
DWIDTH 10 0
SWIDTH 502 0
BITMAP
6180
6180
6180
6180
3300
1E00
0C00
0000
ENDCHAR
STARTCHAR W
ENCODING 87
BBX 10 8 0 -1
DWIDTH 10 0
SWIDTH 502 0
BITMAP
6180
6180
6180
6D80
6D80
7F80
3300
0000
ENDCHAR
STARTCHAR X
ENCODING 88
BBX 10 8 0 -1
DWIDTH 10 0
SWIDTH 502 0
BITMAP
6180
3300
1E00
0C00
1E00
3300
6180
0000
ENDCHAR
STARTCHAR Y
ENCODING 89
BBX 10 8 0 -1
DWIDTH 10 0
SWIDTH 502 0
BITMAP
6180
3300
1E00
0C00
0C00
0C00
1E00
0000
ENDCHAR
STARTCHAR Z
ENCODING 90
BBX 10 8 0 -1
DWIDTH 10 0
SWIDTH 502 0
BITMAP
7F80
6300
0600
0C00
1800
3180
7F80
0000
ENDCHAR
STARTCHAR bracketleft
ENCODING 91
BBX 10 8 0 -1
DWIDTH 10 0
SWIDTH 502 0
BITMAP
3F00
3000
3000
3000
3000
3000
3F00
0000
ENDCHAR
STARTCHAR backslash
ENCODING 92
BBX 10 8 0 -1
DWIDTH 10 0
SWIDTH 502 0
BITMAP
6000
3000
1800
0C00
0600
0300
0180
0000
ENDCHAR
STARTCHAR bracketright
ENCODING 93
BBX 10 8 0 -1
DWIDTH 10 0
SWIDTH 502 0
BITMAP
3F00
0300
0300
0300
0300
0300
3F00
0000
ENDCHAR
STARTCHAR asciicircum
ENCODING 94
BBX 10 8 0 -1
DWIDTH 10 0
SWIDTH 502 0
BITMAP
3F00
6180
0000
0000
0000
0000
0000
0000
ENDCHAR
STARTCHAR underscore
ENCODING 95
BBX 10 7 0 -2
DWIDTH 10 0
SWIDTH 502 0
BITMAP
0000
0000
0000
0000
0000
0000
7F80
ENDCHAR
STARTCHAR grave
ENCODING 96
BBX 10 8 0 -1
DWIDTH 10 0
SWIDTH 502 0
BITMAP
1800
0C00
0600
0000
0000
0000
0000
0000
ENDCHAR
STARTCHAR a
ENCODING 97
BBX 10 8 0 -1
DWIDTH 10 0
SWIDTH 502 0
BITMAP
0000
0000
3F00
0180
1F80
6180
1F80
0000
ENDCHAR
STARTCHAR b
ENCODING 98
BBX 10 8 0 -1
DWIDTH 10 0
SWIDTH 502 0
BITMAP
6000
6000
7E00
6180
6180
6180
7E00
0000
ENDCHAR
STARTCHAR c
ENCODING 99
BBX 10 8 0 -1
DWIDTH 10 0
SWIDTH 502 0
BITMAP
0000
0000
3F00
6180
6000
6000
3F00
0000
ENDCHAR
STARTCHAR d
ENCODING 100
BBX 10 8 0 -1
DWIDTH 10 0
SWIDTH 502 0
BITMAP
0180
0180
1F80
6180
6180
6180
1F80
0000
ENDCHAR
STARTCHAR e
ENCODING 101
BBX 10 8 0 -1
DWIDTH 10 0
SWIDTH 502 0
BITMAP
0000
0000
3F00
6180
7F80
6000
3F00
0000
ENDCHAR
STARTCHAR f
ENCODING 102
BBX 10 8 0 -1
DWIDTH 10 0
SWIDTH 502 0
BITMAP
0F00
1980
7E00
1800
1800
1800
3C00
0000
ENDCHAR
STARTCHAR g
ENCODING 103
BBX 10 9 0 -2
DWIDTH 10 0
SWIDTH 502 0
BITMAP
0000
0000
3F00
6180
6180
1F80
0180
0180
3F00
ENDCHAR
STARTCHAR h
ENCODING 104
BBX 10 8 0 -1
DWIDTH 10 0
SWIDTH 502 0
BITMAP
6000
6000
3F00
6180
6180
6180
6180
0000
ENDCHAR
STARTCHAR i
ENCODING 105
BBX 10 8 0 -1
DWIDTH 10 0
SWIDTH 502 0
BITMAP
0C00
0000
3C00
0C00
0C00
0C00
3F00
0000
ENDCHAR
STARTCHAR j
ENCODING 106
BBX 10 9 0 -2
DWIDTH 10 0
SWIDTH 502 0
BITMAP
0300
0000
0F00
0300
0300
0300
0300
3300
1E00
ENDCHAR
STARTCHAR k
ENCODING 107
BBX 10 8 0 -1
DWIDTH 10 0
SWIDTH 502 0
BITMAP
6000
6000
6600
6C00
7800
6600
6180
0000
ENDCHAR
STARTCHAR l
ENCODING 108
BBX 10 8 0 -1
DWIDTH 10 0
SWIDTH 502 0
BITMAP
3C00
0C00
0C00
0C00
0C00
0C00
3F00
0000
ENDCHAR
STARTCHAR m
ENCODING 109
BBX 10 8 0 -1
DWIDTH 10 0
SWIDTH 502 0
BITMAP
0000
0000
7B00
6D80
6D80
6D80
6D80
0000
ENDCHAR
STARTCHAR n
ENCODING 110
BBX 10 8 0 -1
DWIDTH 10 0
SWIDTH 502 0
BITMAP
0000
0000
7E00
6180
6180
6180
6180
0000
ENDCHAR
STARTCHAR o
ENCODING 111
BBX 10 8 0 -1
DWIDTH 10 0
SWIDTH 502 0
BITMAP
0000
0000
3F00
6180
6180
6180
3F00
0000
ENDCHAR
STARTCHAR p
ENCODING 112
BBX 10 9 0 -2
DWIDTH 10 0
SWIDTH 502 0
BITMAP
0000
0000
3F00
3180
3180
3180
3F00
3000
7800
ENDCHAR
STARTCHAR q
ENCODING 113
BBX 10 9 0 -2
DWIDTH 10 0
SWIDTH 502 0
BITMAP
0000
0000
3F00
6300
6300
6300
3F00
0300
0780
ENDCHAR
STARTCHAR r
ENCODING 114
BBX 10 8 0 -1
DWIDTH 10 0
SWIDTH 502 0
BITMAP
0000
0000
7E00
3300
3000
3000
7800
0000
ENDCHAR
STARTCHAR s
ENCODING 115
BBX 10 8 0 -1
DWIDTH 10 0
SWIDTH 502 0
BITMAP
0000
0000
3F00
6000
3F00
0180
3F00
0000
ENDCHAR
STARTCHAR t
ENCODING 116
BBX 10 8 0 -1
DWIDTH 10 0
SWIDTH 502 0
BITMAP
1800
1800
7E00
1800
1800
1980
0F00
0000
ENDCHAR
STARTCHAR u
ENCODING 117
BBX 10 8 0 -1
DWIDTH 10 0
SWIDTH 502 0
BITMAP
0000
0000
6180
6180
6180
6180
1F80
0000
ENDCHAR
STARTCHAR v
ENCODING 118
BBX 10 8 0 -1
DWIDTH 10 0
SWIDTH 502 0
BITMAP
0000
0000
6180
6180
3300
1E00
0C00
0000
ENDCHAR
STARTCHAR w
ENCODING 119
BBX 10 8 0 -1
DWIDTH 10 0
SWIDTH 502 0
BITMAP
0000
0000
6180
6180
6D80
7F80
3300
0000
ENDCHAR
STARTCHAR x
ENCODING 120
BBX 10 8 0 -1
DWIDTH 10 0
SWIDTH 502 0
BITMAP
0000
0000
6180
3300
0C00
3300
6180
0000
ENDCHAR
STARTCHAR y
ENCODING 121
BBX 10 9 0 -2
DWIDTH 10 0
SWIDTH 502 0
BITMAP
0000
0000
6180
6180
3300
1E00
0C00
1800
7800
ENDCHAR
STARTCHAR z
ENCODING 122
BBX 10 8 0 -1
DWIDTH 10 0
SWIDTH 502 0
BITMAP
0000
0000
7F80
6300
0C00
3180
7F80
0000
ENDCHAR
STARTCHAR braceleft
ENCODING 123
BBX 10 8 0 -1
DWIDTH 10 0
SWIDTH 502 0
BITMAP
0780
0C00
0C00
7800
0C00
0C00
0780
0000
ENDCHAR
STARTCHAR bar
ENCODING 124
BBX 10 9 0 -2
DWIDTH 10 0
SWIDTH 502 0
BITMAP
0C00
0C00
0C00
0C00
0C00
0C00
0C00
0C00
0C00
ENDCHAR
STARTCHAR braceright
ENCODING 125
BBX 10 8 0 -1
DWIDTH 10 0
SWIDTH 502 0
BITMAP
7800
0C00
0C00
0780
0C00
0C00
7800
0000
ENDCHAR
STARTCHAR asciitilde
ENCODING 126
BBX 10 8 0 -1
DWIDTH 10 0
SWIDTH 502 0
BITMAP
1980
3F00
6600
0000
0000
0000
0000
0000
ENDCHAR
ENDFONT
